<?xml version="1.0" encoding="utf-8"?>
<!-- Generator: Adobe Illustrator 25.2.1, SVG Export Plug-In . SVG Version: 6.00 Build 0)  -->
<svg version="1.1" id="Layer_1" xmlns="http://www.w3.org/2000/svg" xmlns:xlink="http://www.w3.org/1999/xlink" x="0px" y="0px"
	 viewBox="0 0 2000 2000" style="enable-background:new 0 0 2000 2000;" xml:space="preserve">
<style type="text/css">
	.st0{fill:#231F20;}
	.st1{fill:#66CC8A;}
	.st2{fill:url(#SVGID_1_);}
	.st3{fill:url(#SVGID_2_);}
	.st4{fill:url(#SVGID_3_);}
	.st5{fill:url(#SVGID_4_);}
	.st6{fill:url(#SVGID_5_);}
	.st7{fill:url(#SVGID_6_);}
	.st8{fill:url(#SVGID_7_);}
</style>
<g>
	<g>
		<g>
			<g>
				<g>
					<path class="st0" d="M523.56,965.22l1.6,14.84c8.22-14.38,21-17.35,33.1-17.35c10.96,0,21.46,3.88,27.85,9.59l-10.73,20.55
						c-5.71-4.57-11.19-6.85-19.86-6.85c-16.21,0-30.36,10.04-30.36,30.82v60.95h-23.51V965.22H523.56z"/>
				</g>
			</g>
			<g>
				<g>
					<path class="st0" d="M621.03,1030.28c2.06,17.12,16.21,28.31,36.76,28.31c11.42,0,25.8-4.34,32.65-12.1l15.3,14.84
						c-11.65,12.79-31.05,19.18-48.4,19.18c-36.98,0-60.73-23.51-60.73-59.58c0-34.24,23.97-58.67,59.13-58.67
						c36.3,0,60.95,22.14,56.61,68.03H621.03z M689.75,1010.42c-1.37-17.81-14.38-27.17-33.33-27.17
						c-17.12,0-31.27,9.36-34.93,27.17H689.75z"/>
				</g>
			</g>
			<g>
				<g>
					<path class="st0" d="M812.79,992.84c-8.91-8.22-18.49-10.5-29.68-10.5c-14.38-0.23-23.97,4.56-23.97,13.47
						c0.23,9.36,10.04,13.01,24.43,14.38c20.77,1.83,47.94,6.39,47.71,35.39c-0.23,21-18.72,35.61-47.94,35.61
						c-18.26,0-36.53-4.11-51.37-20.77l12.33-16.67c10.51,11.64,26.26,16.44,39.5,16.67c11.19,0,23.74-4.11,23.97-14.61
						c0.23-10.04-9.36-13.93-26.03-15.52c-21.23-2.06-45.66-8.9-45.88-33.79c0-24.88,25.8-34.24,46.8-34.24
						c17.35,0,30.82,3.88,43.38,15.07L812.79,992.84z"/>
				</g>
			</g>
			<g>
				<g>
					<path class="st0" d="M881.05,965.22v60.27c0,19.18,10.96,32.42,30.59,32.42c18.49,0,31.27-15.3,31.27-34.02v-58.67h23.51
						v112.77H945.2l-1.37-16.67c-10.96,12.56-23.06,18.27-38.81,18.27c-27.62,0-47.48-19.86-47.48-53.88v-60.5H881.05z"/>
				</g>
			</g>
			<g>
				<g>
					<path class="st0" d="M1079.89,1077.76v-61.87c0-16.66-9.59-30.59-26.26-30.59c-16.66,0-27.16,13.93-27.16,30.59v61.87h-23.51
						V964.99h21.92l1.6,15.07c6.39-12.33,19.63-16.89,31.5-16.89c14.38,0,28.99,5.94,35.38,22.6c9.13-16.66,23.28-22.37,38.58-22.37
						c31.05,0,47.71,19.63,47.71,52.05v62.32h-23.74v-62.32c0-16.67-8.22-29.91-24.88-29.91c-16.67,0-27.4,13.7-27.4,30.36v61.87
						H1079.89z"/>
				</g>
			</g>
			<g>
				<g>
					<path class="st0" d="M1232.15,1030.28c2.06,17.12,16.21,28.31,36.76,28.31c11.42,0,25.8-4.34,32.65-12.1l15.3,14.84
						c-11.65,12.79-31.05,19.18-48.4,19.18c-36.98,0-60.73-23.51-60.73-59.58c0-34.24,23.97-58.67,59.13-58.67
						c36.3,0,60.95,22.14,56.61,68.03H1232.15z M1300.87,1010.42c-1.37-17.81-14.38-27.17-33.33-27.17
						c-17.12,0-31.27,9.36-34.93,27.17H1300.87z"/>
				</g>
			</g>
			<path class="st1" d="M1455.19,964.99l-47.49,113h-16.89l-47.49-113h16.89l39.03,96.11l39.04-96.11H1455.19z"/>
			<path class="st1" d="M1503.58,929.6c0,14.38-21.69,14.38-21.69,0S1503.58,915.22,1503.58,929.6z M1484.86,964.53v113.23h15.3
				V964.53H1484.86z"/>
			<path class="st1" d="M1568.87,931.66v33.56h36.53v13.01h-36.53v63.69c0,14.15,3.88,23.51,19.17,23.51
				c5.25,0,10.96-1.83,16.44-4.34l4.8,12.79c-7.31,3.42-14.39,5.48-21.69,5.48c-24.2,0.23-34.01-13.92-34.01-37.44v-63.69h-23.06
				v-13.01h23.06v-31.96L1568.87,931.66z"/>
			<path class="st1" d="M1728.21,964.99h14.38c0,37.67,0,75.11,0,112.78h-14.15v-22.37c-9.81,16.66-27.85,24.65-44.74,24.65
				c-31.96,0-57.53-22.83-57.53-58.67c0-35.62,25.8-57.99,57.76-57.99c17.35,0,35.84,7.99,44.29,23.97V964.99z M1641.46,1021.37
				c0,26.71,19.18,44.29,42.92,44.29c58.21,0,58.21-88.35,0-88.35C1660.64,977.32,1641.46,994.89,1641.46,1021.37z"/>
		</g>
		<g>
			<path class="st1" d="M396.79,886.68H257.41v226.63h66.47H459.7V950.95v-1.35L396.79,886.68z M386.13,978.78l-16.88-18.2h-37.94
				v119.49h-40.67V919.92h92.38l43.44,43.44v0.25L386.13,978.78z"/>
		</g>
	</g>
</g>
</svg>
