<?xml version="1.0" encoding="utf-8"?>
<!-- Generator: Adobe Illustrator 25.2.1, SVG Export Plug-In . SVG Version: 6.00 Build 0)  -->
<svg version="1.1" id="Layer_1" xmlns="http://www.w3.org/2000/svg" xmlns:xlink="http://www.w3.org/1999/xlink" x="0px" y="0px"
	 viewBox="0 0 2000 2000" style="enable-background:new 0 0 2000 2000;" xml:space="preserve">
<style type="text/css">
	.st0{fill:#231F20;}
	.st1{fill:#66CC8A;}
	.st2{fill:url(#SVGID_1_);}
	.st3{fill:url(#SVGID_2_);}
	.st4{fill:url(#SVGID_3_);}
	.st5{fill:url(#SVGID_4_);}
	.st6{fill:url(#SVGID_5_);}
	.st7{fill:url(#SVGID_6_);}
	.st8{fill:url(#SVGID_7_);}
</style>
<g>
	<g>
		<path class="st1" d="M673.04,1074.55h-25.04l-40.72-46.26h-28.29v46.26h-21.41V940.54c20.84,0,41.48,0.19,62.32,0.19
			c30.97,0,47.22,21.22,47.22,43.78c0,19.11-9.94,37.85-36.32,41.67l39.95,44.54L673.04,1074.55z M578.99,960.23v48.56h40.72
			c17.78,0,25.62-11.28,25.62-23.9c0-12.04-7.84-24.66-25.43-24.66H578.99z"/>
		<path class="st1" d="M713.37,1034.79c1.72,14.34,13.57,23.7,30.78,23.7c9.56,0,21.6-3.63,27.34-10.13l12.81,12.43
			c-9.75,10.71-26,16.06-40.53,16.06c-30.97,0-50.85-19.69-50.85-49.89c0-28.67,20.07-49.13,49.51-49.13
			c30.39,0,51.04,18.54,47.41,56.97H713.37z M770.91,1018.16c-1.15-14.91-12.04-22.75-27.91-22.75c-14.34,0-26.19,7.84-29.25,22.75
			H770.91z"/>
		<path class="st1" d="M881.6,1003.44c-7.46-6.88-15.48-8.79-24.86-8.79c-12.04-0.19-20.07,3.82-20.07,11.28
			c0.19,7.84,8.41,10.89,20.46,12.04c17.4,1.53,40.14,5.35,39.95,29.63c-0.19,17.59-15.68,29.82-40.15,29.82
			c-15.29,0-30.59-3.44-43.01-17.4l10.32-13.96c8.8,9.75,21.99,13.77,33.07,13.96c9.37,0,19.88-3.44,20.08-12.23
			c0.19-8.41-7.84-11.66-21.79-13c-17.78-1.72-38.23-7.45-38.42-28.29c0-20.84,21.6-28.67,39.19-28.67
			c14.53,0,25.81,3.25,36.32,12.62L881.6,1003.44z"/>
		<path class="st1" d="M946.4,980.31v50.47c0,16.06,9.17,27.15,25.62,27.15c15.48,0,26.19-12.81,26.19-28.48v-49.13h19.69v94.43
			h-17.78l-1.15-13.96c-9.17,10.52-19.31,15.3-32.5,15.3c-23.13,0-39.76-16.63-39.76-45.12v-50.66H946.4z"/>
		<path class="st1" d="M1120.55,1074.55v-51.81c0-13.95-8.03-25.62-21.99-25.62c-13.95,0-22.75,11.66-22.75,25.62v51.81h-19.69
			v-94.44h18.35l1.34,12.62c5.35-10.32,16.44-14.15,26.38-14.15c12.04,0,24.28,4.97,29.63,18.92c7.64-13.95,19.5-18.73,32.31-18.73
			c26,0,39.95,16.44,39.95,43.59v52.19h-19.88v-52.19c0-13.96-6.88-25.04-20.83-25.04c-13.96,0-22.94,11.47-22.94,25.43v51.81
			H1120.55z"/>
		<path class="st1" d="M1255.7,1034.79c1.72,14.34,13.57,23.7,30.78,23.7c9.56,0,21.6-3.63,27.34-10.13l12.81,12.43
			c-9.75,10.71-26,16.06-40.53,16.06c-30.97,0-50.85-19.69-50.85-49.89c0-28.67,20.07-49.13,49.51-49.13
			c30.39,0,51.04,18.54,47.41,56.97H1255.7z M1313.24,1018.16c-1.15-14.91-12.04-22.75-27.91-22.75c-14.34,0-26.19,7.84-29.25,22.75
			H1313.24z"/>
		<path class="st1" d="M1418,1075.12h-22.37L1340,940.73h24.08l42.63,108.77l42.82-108.77h23.89L1418,1075.12z"/>
		<path class="st1" d="M1522.75,952.59c0,16.25-24.47,16.25-24.47,0C1498.28,936.53,1522.75,936.53,1522.75,952.59z M1500.58,979.92
			v94.63h19.69v-94.63H1500.58z"/>
		<path class="st1" d="M1588.9,953.16v27.34h27.53v17.01h-27.72v44.92c0,9.94,4.4,15.49,13.58,15.49c3.82,0,8.22-1.34,12.04-3.25
			l5.74,16.82c-6.5,2.87-12.23,4.21-18.93,4.21c-20.46,0.57-32.12-11.09-32.12-33.26v-44.92h-18.16V980.5h18.16v-25.23
			L1588.9,953.16z"/>
		<path class="st1" d="M1723.48,980.31h19.11c0,31.35,0,62.89,0,94.24h-18.73l-0.96-15.29c-6.31,12.04-20.84,17.78-32.5,17.78
			c-27.53,0.19-48.36-17.59-48.36-49.7c0-31.54,21.6-49.13,48.75-49.13c13.38,0,26.19,6.31,32.12,17.01L1723.48,980.31z
			 M1661.73,1027.33c0,19.5,13.77,31.35,30.59,31.35c40.72,0,40.72-62.51,0-62.51C1675.49,996.17,1661.73,1008.03,1661.73,1027.33z"
			/>
	</g>
	<g>
		<path class="st1" d="M257.41,845.58v268.26h52.36v-21.04h-31.31V866.62h157.12v22.86l5.2,5.2l15.87,15.87v-64.97H257.41z"/>
		<linearGradient id="SVGID_1_" gradientUnits="userSpaceOnUse" x1="308.1553" y1="921.2139" x2="471.6483" y2="1156.1176">
			<stop  offset="0" style="stop-color:#00481F"/>
			<stop  offset="1" style="stop-color:#66CC8A"/>
		</linearGradient>
		<polygon class="st2" points="500.47,984.63 500.47,1154.42 322.29,1154.42 322.29,907.2 423.04,907.2 423.04,984.63 		"/>
		<linearGradient id="SVGID_2_" gradientUnits="userSpaceOnUse" x1="391.9883" y1="862.8661" x2="555.4813" y2="1097.7698">
			<stop  offset="0" style="stop-color:#00481F"/>
			<stop  offset="1" style="stop-color:#66CC8A"/>
		</linearGradient>
		<polygon class="st3" points="500.47,972.11 435.57,972.11 435.57,907.2 		"/>
	</g>
</g>
</svg>
