<?xml version="1.0" encoding="utf-8"?>
<!-- Generator: Adobe Illustrator 25.2.1, SVG Export Plug-In . SVG Version: 6.00 Build 0)  -->
<svg version="1.1" id="Layer_1" xmlns="http://www.w3.org/2000/svg" xmlns:xlink="http://www.w3.org/1999/xlink" x="0px" y="0px"
	 viewBox="0 0 2000 2000" style="enable-background:new 0 0 2000 2000;" xml:space="preserve">
<style type="text/css">
	.st0{fill:#231F20;}
	.st1{fill:#66CC8A;}
	.st2{fill:url(#SVGID_1_);}
	.st3{fill:url(#SVGID_2_);}
	.st4{fill:url(#SVGID_3_);}
	.st5{fill:url(#SVGID_4_);}
	.st6{fill:url(#SVGID_5_);}
	.st7{fill:url(#SVGID_6_);}
	.st8{fill:url(#SVGID_7_);}
</style>
<rect y="0.95" class="st0" width="2000" height="2000"/>
<g>
	<g>
		<g>
			<g>
				<path class="st1" d="M786.49,914.32c8.02-3.83,14-9.44,17.88-16.82c3.9-7.37,5.84-15.48,5.84-24.31
					c0-9.36-2.18-17.37-6.52-24.02c-4.36-6.65-10.35-11.71-17.99-15.13c-7.66-3.43-16.36-5.13-26.11-5.13h-38.16v18.38h41.33
					c6.32,0,11.56,1.36,15.72,4.07c4.14,2.69,7.18,6.08,9.09,10.17c1.91,4.09,2.88,8.24,2.88,12.46c0,7-2.27,13.19-6.83,18.6
					c-4.54,5.4-11.96,8.1-22.24,8.1h-39.94v71.18h19.18v-52.6h21.16c2.11,0,3.68-0.05,4.75-0.18l33.6,52.78h22.35L786.49,914.32z"/>
				<path class="st1" d="M902.74,953.27v-44.1h65.85v-18.39h-85.03v81.07h95.71v-18.58H902.74z M976.5,847.28V828.9h-92.95v18.38
					H976.5z"/>
				<path class="st1" d="M1101.85,847.68c-5.8-1.71-11.27-2.57-16.41-2.57c-7.78,0-13.94,1.75-18.49,5.24
					c-4.55,3.49-6.82,8.27-6.82,14.34c0,5.93,2.67,10.78,8.01,14.53c5.34,3.76,12.95,7.48,22.84,11.17
					c7.38,2.64,13.61,5.51,18.68,8.6c5.07,3.1,9.29,7.38,12.66,12.85c3.36,5.47,5.04,12.43,5.04,20.86c0,7.65-1.91,14.57-5.73,20.76
					c-3.83,6.2-9.26,11.07-16.31,14.63c-7.05,3.56-15.32,5.34-24.81,5.34c-8.83,0-17.34-1.42-25.51-4.25
					c-8.17-2.83-15.36-6.43-21.55-10.77l8.5-15.23c4.87,3.69,10.74,6.82,17.6,9.39c6.85,2.57,13.25,3.85,19.18,3.85
					c7.64,0,14.34-1.98,20.07-5.93c5.73-3.95,8.6-9.82,8.6-17.6c0-6.59-2.41-11.83-7.22-15.72c-4.81-3.89-11.57-7.55-20.27-10.97
					c-8.04-3.03-14.73-6-20.07-8.9c-5.34-2.9-9.92-6.89-13.74-11.96c-3.82-5.07-5.73-11.43-5.73-19.08
					c0-11.2,3.92-20.27,11.76-27.19c7.84-6.92,18.02-10.58,30.55-10.97c15.42,0,29.72,3.83,42.91,11.47l-7.32,14.83
					C1113.12,851.63,1107.65,849.39,1101.85,847.68z"/>
				<path class="st1" d="M1212.96,938.33c3.03,5.08,7.15,9.09,12.36,12.06c5.2,2.97,10.97,4.45,17.3,4.45
					c6.59,0,12.56-1.45,17.89-4.35c5.34-2.9,9.52-6.92,12.55-12.06c3.03-5.14,4.55-10.87,4.55-17.2v-92.34h18.78v92.93
					c0,10.15-2.37,19.15-7.12,26.99c-4.74,7.84-11.21,13.91-19.38,18.19c-8.17,4.28-17.27,6.43-27.29,6.43
					c-9.89,0-18.92-2.14-27.09-6.43c-8.17-4.28-14.6-10.35-19.28-18.19c-4.68-7.84-7.02-16.84-7.02-26.99v-92.93h19.18v92.34
					C1208.42,927.56,1209.93,933.26,1212.96,938.33z"/>
				<path class="st1" d="M1509.54,824.35v147.5h-18.98v-92.53l-52.59,74.54h-0.4l-51.61-71.97v89.96h-18.58v-147.5h0.2l70.39,99.65
					l71.38-99.65H1509.54z"/>
				<path class="st1" d="M1601.49,953.27v-44.1h65.83v-18.39h-85.01v81.07H1678v-18.58H1601.49z M1675.23,847.28V828.9h-92.93v18.38
					H1675.23z"/>
			</g>
			<g>
				<path class="st1" d="M833.72,1060.01l-56.14,133.23l-56.14-133.23h20.24l36.61,91.7l35.37-91.7H833.72z"/>
				<path class="st1" d="M904.29,1060.01v127.25h-17.07v-127.25H904.29z"/>
				<path class="st1" d="M1044.21,1060.01v16.37h-34.14v110.88h-17.07v-110.88h-33.26v-16.37H1044.21z"/>
				<path class="st1" d="M1133.62,1054.73h-1.06l-55.61,132.52h16.9l38.54-94.69l37.14,94.69h19.72L1133.62,1054.73z"/>
			</g>
		</g>
	</g>
	<g>
		<path class="st1" d="M322,808.65v327.07h63.84v-25.66h-38.18V834.31h191.56v27.87l6.34,6.34l19.34,19.34v-79.21H322z"/>
		<g>
			<linearGradient id="SVGID_1_" gradientUnits="userSpaceOnUse" x1="596.1531" y1="1199.8092" x2="389.3684" y2="917.2036">
				<stop  offset="0" style="stop-color:#66CC8A"/>
				<stop  offset="1" style="stop-color:#00481F"/>
			</linearGradient>
			<polygon class="st2" points="618.35,978.19 618.35,1185.2 401.11,1185.2 401.11,883.79 523.94,883.79 523.94,978.19 			"/>
			<linearGradient id="SVGID_2_" gradientUnits="userSpaceOnUse" x1="697.7318" y1="1125.4834" x2="490.9471" y2="842.8777">
				<stop  offset="0" style="stop-color:#66CC8A"/>
				<stop  offset="1" style="stop-color:#00481F"/>
			</linearGradient>
			<polygon class="st3" points="618.35,962.92 539.22,962.92 539.22,883.79 			"/>
		</g>
	</g>
</g>
</svg>
